<?xml version="1.0" encoding="UTF-8" standalone="no" ?>
<!DOCTYPE svg PUBLIC "-//W3C//DTD SVG 1.1//EN" "http://www.w3.org/Graphics/SVG/1.1/DTD/svg11.dtd">
<svg xmlns="http://www.w3.org/2000/svg" xmlns:xlink="http://www.w3.org/1999/xlink" version="1.1" width="500" height="500" viewBox="0 0 500 500" xml:space="preserve">
<!-- Created with SVG Stack Editor - https://svgstack.com -->
<defs>
</defs>
<rect x="0" y="0" width="100%" height="100%" fill="transparent"></rect>
<g transform="matrix(0.66 0 0 0.66 250 250)"  >
<g style=""   >
		<g transform="matrix(2 0 0 2 -2.14 -356.68)" id="path_0"  >
<path style="stroke: none; stroke-width: 1; stroke-dasharray: none; stroke-linecap: butt; stroke-dashoffset: 0; stroke-linejoin: miter; stroke-miterlimit: 4; fill: rgb(255, 255, 255); fill-rule: nonzero; opacity: 1;"  transform=" translate(-255.74, -76.72)" d="M 231.131 65.8173 L 271.474 65.8082 C 288.261 65.787 310.697 62.9762 310.759 87.7424 L 280.125 87.7424 L 200.717 87.7424 C 202.322 67.3497 213.194 65.8384 231.131 65.8173 Z" stroke-linecap="round" />
</g>
		<g transform="matrix(2 0 0 2 0 -260.06)" id="path_1"  >
<path style="stroke: none; stroke-width: 1; stroke-dasharray: none; stroke-linecap: butt; stroke-dashoffset: 0; stroke-linejoin: miter; stroke-miterlimit: 4; fill: rgb(255, 255, 255); fill-rule: nonzero; opacity: 1;"  transform=" translate(-256.81, -125.03)" d="M 160.754 102.897 L 358.799 102.91 C 365.67 102.895 376.089 102.335 382.549 103.188 C 399.63 105.444 404.425 126.015 401.238 140.067 C 399.097 149.507 388.194 147.062 381.035 147.055 L 352.936 147.043 L 126.492 147.071 C 110.038 147.27 111.316 144.153 111.589 128.257 C 111.992 104.767 123.614 102.881 144.436 102.883 L 160.754 102.897 Z" stroke-linecap="round" />
</g>
		<g transform="matrix(2 0 0 2 -1.29 95.92)" id="path_2"  >
<path style="stroke: none; stroke-width: 1; stroke-dasharray: none; stroke-linecap: butt; stroke-dashoffset: 0; stroke-linejoin: miter; stroke-miterlimit: 4; fill: rgb(255, 255, 255); fill-rule: nonzero; opacity: 1;"  transform=" translate(-256.16, -303.02)" d="M 154.364 161.627 L 380.996 161.627 C 381.434 166.993 380.88 172.431 380.582 177.796 L 366.529 408.707 C 365.934 421.381 364.489 431.337 352.936 439.273 C 344.01 446.179 329.255 443.894 318.783 443.877 L 209.978 443.876 C 187.133 443.879 152.158 450.205 147.033 419.534 C 146.353 415.459 146.256 411.181 145.949 407.062 L 131.947 181.211 C 131.552 174.709 130.967 168.143 131.231 161.627 L 154.364 161.627 Z M 199.261 208.575 C 194.144 210.211 192.868 213.047 192.768 218.025 C 192.57 227.853 192.748 237.724 192.748 247.555 L 192.755 347.109 C 192.756 357.011 187.966 379.374 201.95 378.25 C 211.341 374.718 208.198 361.682 208.233 353.013 L 208.251 251.333 C 208.254 245.013 208.977 217.402 207.559 213.535 C 206.32 210.154 202.695 208.382 199.261 208.575 Z M 255.716 208.575 C 250.902 209.46 248.702 212.125 248.544 216.856 C 248.136 229.121 248.491 241.517 248.489 253.798 L 248.497 356.438 C 248.5 364.735 245.208 378.632 257.122 378.25 C 262.211 376.9 263.516 374.376 263.611 369.467 C 263.858 356.682 263.639 343.847 263.64 331.059 L 263.637 228.308 C 263.635 220.747 266.116 209.837 255.716 208.575 Z M 312.812 208.575 C 301.419 210.593 304.549 224.305 304.55 233.762 L 304.542 357.769 C 304.543 365.102 301.484 378.637 312.812 378.25 C 321.896 377.294 319.781 367.238 319.764 360.728 L 319.739 239.955 C 319.754 230.584 323.432 211.983 312.812 208.575 Z" stroke-linecap="round" />
</g>
</g>
</g>
<g transform="matrix(0.66 0 0 0.66 250 250)"  >
<g style=""   >
		<g transform="matrix(2 0 0 2 -2.14 -356.68)" id="path_0"  >
<path style="stroke: none; stroke-width: 1; stroke-dasharray: none; stroke-linecap: butt; stroke-dashoffset: 0; stroke-linejoin: miter; stroke-miterlimit: 4; fill: rgb(255, 255, 255); fill-rule: nonzero; opacity: 1;"  transform=" translate(-255.74, -76.72)" d="M 231.131 65.8173 L 271.474 65.8082 C 288.261 65.787 310.697 62.9762 310.759 87.7424 L 280.125 87.7424 L 200.717 87.7424 C 202.322 67.3497 213.194 65.8384 231.131 65.8173 Z" stroke-linecap="round" />
</g>
		<g transform="matrix(2 0 0 2 0 -260.06)" id="path_1"  >
<path style="stroke: none; stroke-width: 1; stroke-dasharray: none; stroke-linecap: butt; stroke-dashoffset: 0; stroke-linejoin: miter; stroke-miterlimit: 4; fill: rgb(255, 255, 255); fill-rule: nonzero; opacity: 1;"  transform=" translate(-256.81, -125.03)" d="M 160.754 102.897 L 358.799 102.91 C 365.67 102.895 376.089 102.335 382.549 103.188 C 399.63 105.444 404.425 126.015 401.238 140.067 C 399.097 149.507 388.194 147.062 381.035 147.055 L 352.936 147.043 L 126.492 147.071 C 110.038 147.27 111.316 144.153 111.589 128.257 C 111.992 104.767 123.614 102.881 144.436 102.883 L 160.754 102.897 Z" stroke-linecap="round" />
</g>
		<g transform="matrix(2 0 0 2 -1.29 95.92)" id="path_2"  >
<path style="stroke: none; stroke-width: 1; stroke-dasharray: none; stroke-linecap: butt; stroke-dashoffset: 0; stroke-linejoin: miter; stroke-miterlimit: 4; fill: rgb(255, 255, 255); fill-rule: nonzero; opacity: 1;"  transform=" translate(-256.16, -303.02)" d="M 154.364 161.627 L 380.996 161.627 C 381.434 166.993 380.88 172.431 380.582 177.796 L 366.529 408.707 C 365.934 421.381 364.489 431.337 352.936 439.273 C 344.01 446.179 329.255 443.894 318.783 443.877 L 209.978 443.876 C 187.133 443.879 152.158 450.205 147.033 419.534 C 146.353 415.459 146.256 411.181 145.949 407.062 L 131.947 181.211 C 131.552 174.709 130.967 168.143 131.231 161.627 L 154.364 161.627 Z M 199.261 208.575 C 194.144 210.211 192.868 213.047 192.768 218.025 C 192.57 227.853 192.748 237.724 192.748 247.555 L 192.755 347.109 C 192.756 357.011 187.966 379.374 201.95 378.25 C 211.341 374.718 208.198 361.682 208.233 353.013 L 208.251 251.333 C 208.254 245.013 208.977 217.402 207.559 213.535 C 206.32 210.154 202.695 208.382 199.261 208.575 Z M 255.716 208.575 C 250.902 209.46 248.702 212.125 248.544 216.856 C 248.136 229.121 248.491 241.517 248.489 253.798 L 248.497 356.438 C 248.5 364.735 245.208 378.632 257.122 378.25 C 262.211 376.9 263.516 374.376 263.611 369.467 C 263.858 356.682 263.639 343.847 263.64 331.059 L 263.637 228.308 C 263.635 220.747 266.116 209.837 255.716 208.575 Z M 312.812 208.575 C 301.419 210.593 304.549 224.305 304.55 233.762 L 304.542 357.769 C 304.543 365.102 301.484 378.637 312.812 378.25 C 321.896 377.294 319.781 367.238 319.764 360.728 L 319.739 239.955 C 319.754 230.584 323.432 211.983 312.812 208.575 Z" stroke-linecap="round" />
</g>
</g>
</g>
</svg>